<svg id="Servicios" xmlns="http://www.w3.org/2000/svg" width="80.399" height="60.694" viewBox="0 0 80.399 60.694">
  <path id="Trazado_391" data-name="Trazado 391" d="M271.917,847.034a11.229,11.229,0,0,0-11.04-2.707c-.819.246-1.7.506-2.63.772V808.605a2.334,2.334,0,0,0-2.334-2.334H222.648a2.334,2.334,0,0,0-2.334,2.334v24.479l-5.3-1.292.309-1.21a2.334,2.334,0,0,0-1.678-2.839l-15.1-3.891a2.334,2.334,0,0,0-2.907,2.047l-2.744,29.957a2.335,2.335,0,0,0,2.093,2.536l10.895,1.09c.079.008.156.012.234.012a2.334,2.334,0,0,0,2.26-1.756l.094-.368c5.586,2.737,20.443,9.594,29.084,9.594,8.261,0,24.432-7.958,33.336-12.7a4.521,4.521,0,0,0,1.028-7.229ZM224.982,810.94h28.6v35.439c-.726.189-1.456.374-2.183.551a13.318,13.318,0,0,0-9.452-8.576l-16.961-4.132Zm-27.227,43.038,2.282-24.92,10.183,2.625-5.871,22.954Zm39.8,8.318c-8.065,0-23.483-7.358-27.9-9.552l4.2-16.428,26.984,6.574a8.669,8.669,0,0,1,5.95,5.053c-.415.079-.825.155-1.221.223-7.53,1.279-19.232-2.961-19.35-3a2.335,2.335,0,0,0-1.608,4.383c.526.193,12.977,4.711,21.74,3.223a147.694,147.694,0,0,0,15.868-3.968,6.553,6.553,0,0,1,6.3,1.44C254.311,857.791,242.745,862.3,237.553,862.3Z" transform="translate(-192.884 -806.271)" fill="#fff"/>
  <path id="Trazado_392" data-name="Trazado 392" d="M256.219,827.94h15.757a2.334,2.334,0,1,0,0-4.669H256.219a2.334,2.334,0,1,0,0,4.669Z" transform="translate(-218.285 -813.35)" fill="#fff"/>
  <path id="Trazado_393" data-name="Trazado 393" d="M274.311,842.605a2.334,2.334,0,0,0-2.334-2.334H256.219a2.334,2.334,0,1,0,0,4.669h15.757A2.335,2.335,0,0,0,274.311,842.605Z" transform="translate(-218.285 -820.429)" fill="#fff"/>
</svg>
